<svg xmlns="http://www.w3.org/2000/svg" viewBox="0 0 64 64"><g data-name="Filled outline"><polygon fill="#f5f9ff" points="24.158 46.849 42.543 53.92 60.928 60.991 53.857 42.607 46.786 24.222 24.158 46.849"/><path fill="#ebebff" d="M59.06,56.12l-2.43-.94-5.05-1.94-5.1-1.96-.94-.36-4.27-1.64-.86-.331A17.577,17.577,0,0,1,39.19,44.6,17.207,17.207,0,0,1,39,42a17.937,17.937,0,0,1,.61-4.66,50.726,50.726,0,0,1-9.218,7.815h0c-.636.371-1.195.7-1.727.991a12.743,12.743,0,0,1-1.89.813l-.039.012c-.1.033-.2.055-.295.081a6.626,6.626,0,0,1-1.29.177l6.69,2.57L37.56,52l4.98,1.92.49.19,5.19,2h.01l.11.04h.01l5.21,2,7.37,2.84Z"/><ellipse cx="35.472" cy="35.535" fill="#f5f9ff" rx="16" ry="4.232" transform="rotate(-45 35.472 35.536)"/><path fill="#ebebff" d="M26.453,47.054c2.819-.764,7.452-3.968,12.011-8.526s7.763-9.193,8.527-12.011c-2.819.763-7.452,3.967-12.011,8.526S27.217,44.235,26.453,47.054Z"/><path fill="#facf5b" d="M6 3.526l.778.264a1.589 1.589 0 0 0 1.461-.232L8.9 3.067a1.59 1.59 0 0 1 2.54 1.3l-.01.82A1.592 1.592 0 0 0 12.1 6.5l.67.473a1.59 1.59 0 0 1-.446 2.817l-.783.243A1.592 1.592 0 0 0 10.5 11.08l-.243.784a1.59 1.59 0 0 1-2.816.446l-.474-.67a1.592 1.592 0 0 0-1.318-.672l-.821.011A1.59 1.59 0 0 1 3.53 8.438l.49-.657a1.591 1.591 0 0 0 .232-1.462l-.264-.777A1.59 1.59 0 0 1 6 3.526zM35.812 3.39l.393.292a.95.95 0 0 0 .873.136l.463-.158a.949.949 0 0 1 1.206 1.2l-.156.464a.946.946 0 0 0 .14.872l.293.392a.949.949 0 0 1-.769 1.518l-.49 0a.947.947 0 0 0-.786.4l-.282.4a.95.95 0 0 1-1.682-.263l-.146-.468a.947.947 0 0 0-.626-.623l-.468-.144a.949.949 0 0 1-.269-1.681l.4-.283a.948.948 0 0 0 .4-.788l-.007-.49A.949.949 0 0 1 35.812 3.39zM59.183 3.679l.169.46a.951.951 0 0 0 .656.592l.475.121a.949.949 0 0 1 .351 1.665l-.385.3a.95.95 0 0 0-.36.806l.031.489a.949.949 0 0 1-1.475.849l-.407-.273A.951.951 0 0 0 57.36 8.6l-.455.181a.949.949 0 0 1-1.263-1.141l.133-.471a.947.947 0 0 0-.183-.864l-.312-.377a.949.949 0 0 1 .694-1.554l.49-.019a.947.947 0 0 0 .765-.44l.262-.414A.949.949 0 0 1 59.183 3.679zM3.488 58.083l.335-.357a.949.949 0 0 0 .236-.851l-.1-.479a.949.949 0 0 1 1.332-1.059l.443.208a.949.949 0 0 0 .882-.038l.423-.247a.949.949 0 0 1 1.42.939l-.062.486a.951.951 0 0 0 .31.827l.365.326a.949.949 0 0 1-.454 1.64l-.481.092a.948.948 0 0 0-.691.55l-.2.448a.949.949 0 0 1-1.7.075l-.236-.43a.948.948 0 0 0-.736-.487l-.488-.049A.949.949 0 0 1 3.488 58.083zM6.929 33.575l.217.439a.947.947 0 0 0 .714.52l.485.07a.949.949 0 0 1 .526 1.619l-.351.341a.954.954 0 0 0-.273.84l.083.483a.949.949 0 0 1-1.377 1L6.52 38.66a.945.945 0 0 0-.883 0l-.434.227a.949.949 0 0 1-1.377-1l.083-.483a.948.948 0 0 0-.273-.84l-.351-.341A.949.949 0 0 1 3.811 34.6l.485-.07a.947.947 0 0 0 .714-.52l.217-.439A.949.949 0 0 1 6.929 33.575z"/><path fill="#f0af4c" d="M60.482 4.852l-.474-.121a.934.934 0 0 1-.572-.469 4.979 4.979 0 0 1-3.627 2.657.956.956 0 0 1-.034.248l-.133.471a.949.949 0 0 0 1.263 1.141L57.36 8.6a.951.951 0 0 1 .878.093l.407.273a.949.949 0 0 0 1.475-.849l-.031-.489a.95.95 0 0 1 .36-.806l.385-.3A.949.949 0 0 0 60.482 4.852zM39.024 6.589L38.731 6.2a.946.946 0 0 1-.14-.872l.156-.464a.949.949 0 0 0-1.206-1.2l-.463.158a.95.95 0 0 1-.873-.136l-.393-.292a.957.957 0 0 0-.121-.066A4.959 4.959 0 0 1 36 5a4.956 4.956 0 0 1-1.146 3.15c0 .009.012.015.015.024l.146.468A.95.95 0 0 0 36.7 8.9l.282-.4a.948.948 0 0 1 .786-.4l.49 0A.949.949 0 0 0 39.024 6.589zM8.345 34.6l-.485-.07A.936.936 0 0 1 7.4 34.32a4.975 4.975 0 0 1-3.545 2.593.942.942 0 0 1 .05.491l-.083.483a.949.949 0 0 0 1.377 1l.434-.227a.945.945 0 0 1 .883 0l.433.227a.949.949 0 0 0 1.377-1L8.247 37.4a.954.954 0 0 1 .273-.84l.351-.341A.949.949 0 0 0 8.345 34.6zM9.068 57.838L8.7 57.512a.951.951 0 0 1-.31-.827l.062-.486a.942.942 0 0 0-.614-1.006 4.981 4.981 0 0 1-4.572 3.78.934.934 0 0 0 .815.7l.488.049a.948.948 0 0 1 .736.487l.236.43a.949.949 0 0 0 1.7-.075l.2-.448a.948.948 0 0 1 .691-.55l.481-.092A.949.949 0 0 0 9.068 57.838zM12.772 6.974L12.1 6.5a1.592 1.592 0 0 1-.671-1.319l.01-.82a1.581 1.581 0 0 0-1.557-1.6 6.961 6.961 0 0 1-5.613 8.117 1.579 1.579 0 0 0 .553.1l.821-.011a1.592 1.592 0 0 1 1.318.672l.474.67a1.59 1.59 0 0 0 2.816-.446l.243-.784a1.592 1.592 0 0 1 1.047-1.046l.783-.243A1.59 1.59 0 0 0 12.772 6.974z"/><path fill="#f5f9ff" d="M39.61,37.34c3.62-3.82,6.23-7.57,7.17-10.15"/><path fill="#c02027" d="M47.17,25.21a5.1,5.1,0,0,1-.39,1.98"/><path fill="#911a1c" d="M43.43,53.81c-.14.1-.27.2-.4.3l-.49-.19L37.56,52a37.509,37.509,0,0,0,3.18-2.29A17.5,17.5,0,0,0,43.43,53.81Z"/><path fill="#c02027" d="M49.74,31.9a42.46,42.46,0,0,1-7.79,10.11A42.46,42.46,0,0,1,31.84,49.8l-6.69-2.57c2.49.15,7.96-3.35,13.31-8.7s8.86-10.83,8.71-13.32Z"/><path fill="#911a1c" d="M39,42a17.937,17.937,0,0,1,.61-4.66,50.726,50.726,0,0,1-9.218,7.815c-2.01,1.173-3.272,2-5.242,2.075l6.69,2.57a29.718,29.718,0,0,0,4.1-2.57l0,0c1.047-.772,2.139-1.649,3.255-2.628A17.207,17.207,0,0,1,39,42Z"/><path fill="#c02027" d="M54.05,43.09a53.461,53.461,0,0,1-5.14,5.89,54.189,54.189,0,0,1-5.88,5.13l-.49-.19L37.56,52a48.362,48.362,0,0,0,7.88-6.5,49.427,49.427,0,0,0,6.5-7.88l1.92,4.99Z"/><path fill="#911a1c" d="M46.48,51.28c-1.18,1.05-2.34,2-3.45,2.83l-.49-.19L37.56,52a38.874,38.874,0,0,0,3.71-2.72l4.27,1.64Z"/><path fill="#c02027" d="M58.09,53.62c-.69.77-1.43,1.55-2.2,2.33s-1.55,1.5-2.33,2.2l-5.21-2h-.01l-.12-.04c1.28-1.05,2.97-2.44,4.18-3.65,1.23-1.22,2.62-2.81,3.68-4.08Z"/><path fill="#911a1c" d="M56.63,55.18c-.24.26-.49.51-.74.77-.78.78-1.55,1.5-2.33,2.2l-5.21-2h-.01l-.11-.04c1.01-.84,2.27-1.87,3.35-2.87Z"/><path d="M59.023 53.261v0c0-.005-4.039-10.53-4.043-10.535-1.073-2.781-3.234-8.395-4.3-11.182v0l-2.53-6.586C46.271 15.3 18.4 41.681 23.436 47.534a2.323 2.323 0 0 0 1.457.669l6.585 2.529h0c2.793 1.074 8.4 3.233 11.188 4.31h0l5.309 2.04a.675.675 0 0 0 .076.025l5.068 1.946a.988.988 0 0 0 .118.045l7.327 2.824a1 1 0 0 0 1.293-1.293zm-2.8.909c-.906.963-1.884 1.923-2.881 2.824l-3.06-1.174a56.855 56.855 0 0 0 5.474-5.5l1.181 3.08C56.7 53.655 56.461 53.914 56.22 54.17zm-30-12.247c3.3-6.361 16.155-17.885 19.739-17.071a.468.468 0 0 1 .213.556A28.77 28.77 0 0 1 40.749 34.6a1 1 0 0 0 1.518 1.3 33.616 33.616 0 0 0 5.069-7.464l1.306 3.4A47.906 47.906 0 0 1 31.771 48.7l-3.395-1.3a37.617 37.617 0 0 0 8.559-6.038 1 1 0 0 0-1.34-1.484 33.393 33.393 0 0 1-10.246 6.359.418.418 0 0 1-.546-.21C24.667 45.6 24.847 44.289 26.223 41.923zm8.256 7.519A53.445 53.445 0 0 0 49.571 34.247l1.25 3.25A52.112 52.112 0 0 1 37.438 50.882l-3.251-1.251C34.283 49.571 34.382 49.5 34.479 49.442zm5.356 2.214A56.421 56.421 0 0 0 51.692 39.761l1.219 3.166A55.553 55.553 0 0 1 42.864 52.973L39.7 51.755C39.747 51.724 39.792 51.688 39.835 51.656zm5.255 2.12a60.576 60.576 0 0 0 8.663-8.67L54.94 48.2a55.523 55.523 0 0 1-6.786 6.807l-3.109-1.2zM55.423 57.8c.8-.755 1.577-1.537 2.312-2.317l1.452 3.767zM4.836 11.979c.358.026 1.087-.143 1.31.238a3.049 3.049 0 0 0 2.582 1.765 2.586 2.586 0 0 0 2.48-1.822c.135-.332.2-1.078.632-1.171a2.925 2.925 0 0 0 2.573-2.312 2.927 2.927 0 0 0-1.732-2.992c-.382-.219-.215-.96-.24-1.311A2.605 2.605 0 0 0 8.3 2.266l-.658.49c-.325.3-.979-.093-1.32-.177A2.605 2.605 0 0 0 3.041 5.863c.1.347.467.99.178 1.32l-.491.657A2.607 2.607 0 0 0 4.836 11.979zm-.5-2.943A3.041 3.041 0 0 0 5.2 6l-.263-.777a.588.588 0 0 1 .748-.747l.775.261A3.036 3.036 0 0 0 9.5 3.869a.59.59 0 0 1 .943.48l-.01.821A3.043 3.043 0 0 0 12.2 7.791a.59.59 0 0 1-.166 1.045l-.783.243A3.043 3.043 0 0 0 9.3 11.567a.589.589 0 0 1-1.045.165l-.474-.669A3.043 3.043 0 0 0 4.811 9.979a.646.646 0 0 1-.533-.322A.578.578 0 0 1 4.331 9.036zM56 22v1a1 1 0 0 0 2 0V22A1 1 0 0 0 56 22zM61 18H60a1 1 0 0 0 0 2h1A1 1 0 0 0 61 18zM58 15a1 1 0 0 0-2 0v1a1 1 0 0 0 2 0zM53 20h1a1 1 0 0 0 0-2H53A1 1 0 0 0 53 20zM57 18a1 1 0 0 0 0 2A1 1 0 0 0 57 18zM23 12a1 1 0 0 0 1-1V10a1 1 0 0 0-2 0v1A1 1 0 0 0 23 12zM26 8h1a1 1 0 0 0 0-2H26A1 1 0 0 0 26 8zM23 5a1 1 0 0 0 1-1V3a1 1 0 0 0-2 0V4A1 1 0 0 0 23 5zM19 8h1a1 1 0 0 0 0-2H19A1 1 0 0 0 19 8zM23 8a1 1 0 0 0 0-2A1 1 0 0 0 23 8zM6 26v1a1 1 0 0 0 2 0V26A1 1 0 0 0 6 26zM11 22H10a1 1 0 0 0 0 2h1A1 1 0 0 0 11 22zM8 19a1 1 0 0 0-2 0v1a1 1 0 0 0 2 0zM3 24H4a1 1 0 0 0 0-2H3A1 1 0 0 0 3 24zM7 22a1 1 0 0 0 0 2A1 1 0 0 0 7 22zM21 59a1 1 0 0 0-1 1v1a1 1 0 0 0 2 0V60A1 1 0 0 0 21 59zM25 56H24a1 1 0 0 0 0 2h1A1 1 0 0 0 25 56zM21 52a1 1 0 0 0-1 1v1a1 1 0 0 0 2 0V53A1 1 0 0 0 21 52zM18 56H17a1 1 0 0 0 0 2h1A1 1 0 0 0 18 56zM21 56a1 1 0 0 0 0 2A1 1 0 0 0 21 56zM20.818 41.983a1 1 0 0 0 .366-1.966c-5.263-.978-14.943.651-16.174 10.843a1 1 0 0 0 1.98.281C8 42.253 16.56 41.226 20.818 41.983zM23.529 33.848a1 1 0 0 0 .32-1.376c-.123-.2-3.079-4.879-7.162-5.345a6.435 6.435 0 0 0-5.4 2.167 1 1 0 1 0 1.416 1.412c3.955-4.325 8.53 1.29 9.443 2.823A1 1 0 0 0 23.529 33.848zM41.681 21.316a1 1 0 0 0 .982-1.2 11.8 11.8 0 0 1 1.51-7.979C45.614 10 47.976 8.6 51.188 7.982a1 1 0 0 0-.376-1.964c-3.765.722-6.561 2.413-8.311 5.024a13.646 13.646 0 0 0-1.8 9.475A1 1 0 0 0 41.681 21.316zM33.113 24.14a1 1 0 0 0 1.14-1.644c-.244-.17-5.95-4.225-3.372-9.022a1 1 0 0 0-1.762-.948C26.379 17.626 30.533 22.353 33.113 24.14zM14.293 15.707l14 14a1 1 0 1 0 1.414-1.414l-14-14A1 1 0 0 0 14.293 15.707zM33.48 8.361l.435.112a2 2 0 0 0 3.6 1.007l.239-.378a2 2 0 0 0 2.071-3.114l-.286-.343a2 2 0 0 0-2.32-2.931l-.416.165a2 2 0 0 0-3.505 1.3l.028.447A2 2 0 0 0 33.48 8.361zm1.736-4.169l-.733 2.066a1.952 1.952 0 0 0 .822-1.618l-.033-.406a2.131 2.131 0 0 0 2.129.531l.4-.223A2.182 2.182 0 0 0 37.931 6.8l.336.309a2.183 2.183 0 0 0-2.106.821l-.191.415A2.18 2.18 0 0 0 34.538 6.6l-.452-.055zM54.813 6.9a2 2 0 0 0 2.459 2.813l.411-.186a2 2 0 0 0 3.435-1.47l-.05-.447a2 2 0 0 0-.339-3.722l-.438-.089a2 2 0 0 0-3.645-.829l-.22.389a2 2 0 0 0-1.915 3.21zM56.5 5.353a1.953 1.953 0 0 0 1.574-.906l.2-.356A2.124 2.124 0 0 0 59.761 5.7l.454.032a2.185 2.185 0 0 0-1.124 1.958l.11.444a2.179 2.179 0 0 0-2.209-.465l-.388.243a2.183 2.183 0 0 0-.242-2.247l-.349-.293zM9.386 56.811A2 2 0 0 0 6.53 54.4l-.375.244a2 2 0 0 0-3.176 1.969l.116.433a2 2 0 0 0 .887 3.63l.45.021a2 2 0 0 0 3.727.278l.159-.419a2 2 0 0 0 1.416-3.46zM7.945 58.587a1.95 1.95 0 0 0-1.419 1.131l-.1.444a2.183 2.183 0 0 0-1.747-1.431l-.409-.014a2.128 2.128 0 0 0 .771-2.055l-.174-.42a2.182 2.182 0 0 0 2.255.128l.346-.3a2.184 2.184 0 0 0 .574 2.186l.392.238zM2.924 37.234a2 2 0 0 0 2.745 2.538l.385-.228a2 2 0 0 0 3.261-1.827l-.1-.437a2 2 0 0 0-.731-3.666l-.446-.042a2 2 0 0 0-3.711-.439l-.179.411a2 2 0 0 0-1.565 3.394zm1.515-1.712a1.944 1.944 0 0 0 1.468-1.065l.156-.375a2.128 2.128 0 0 0 1.654 1.44l.456-.015a2.179 2.179 0 0 0-.911 2.067L7.419 38a2.182 2.182 0 0 0-2.248-.229l-.359.283a2.181 2.181 0 0 0-.478-2.208l-.379-.256z"/><path d="M40,38a1,1,0,0,0-2,0A1,1,0,0,0,40,38Z"/></g></svg>